<svg xmlns="http://www.w3.org/2000/svg">

    <symbol viewBox="0 0 16 16" id="sun-fill">
        <path
            d="M8 12a4 4 0 1 0 0-8 4 4 0 0 0 0 8M8 0a.5.5 0 0 1 .5.5v2a.5.5 0 0 1-1 0v-2A.5.5 0 0 1 8 0m0 13a.5.5 0 0 1 .5.5v2a.5.5 0 0 1-1 0v-2A.5.5 0 0 1 8 13m8-5a.5.5 0 0 1-.5.5h-2a.5.5 0 0 1 0-1h2a.5.5 0 0 1 .5.5M3 8a.5.5 0 0 1-.5.5h-2a.5.5 0 0 1 0-1h2A.5.5 0 0 1 3 8m10.657-5.657a.5.5 0 0 1 0 .707l-1.414 1.415a.5.5 0 1 1-.707-.708l1.414-1.414a.5.5 0 0 1 .707 0m-9.193 9.193a.5.5 0 0 1 0 .707L3.05 13.657a.5.5 0 0 1-.707-.707l1.414-1.414a.5.5 0 0 1 .707 0m9.193 2.121a.5.5 0 0 1-.707 0l-1.414-1.414a.5.5 0 0 1 .707-.707l1.414 1.414a.5.5 0 0 1 0 .707M4.464 4.465a.5.5 0 0 1-.707 0L2.343 3.05a.5.5 0 1 1 .707-.707l1.414 1.414a.5.5 0 0 1 0 .708" />
    </symbol>

    <symbol viewBox="0 0 16 16" id="sidebar-icon">
        <path
            d="M14 2a1 1 0 0 1 1 1v10a1 1 0 0 1-1 1H2a1 1 0 0 1-1-1V3a1 1 0 0 1 1-1zM2 1a2 2 0 0 0-2 2v10a2 2 0 0 0 2 2h12a2 2 0 0 0 2-2V3a2 2 0 0 0-2-2z" />
        <path d="M3 4a1 1 0 0 1 1-1h2a1 1 0 0 1 1 1v8a1 1 0 0 1-1 1H4a1 1 0 0 1-1-1z" />
    </symbol>
    <symbol viewBox="0 0 16 16" id="clip-icon">
        <path
            d="M4.5 3a2.5 2.5 0 0 1 5 0v9a1.5 1.5 0 0 1-3 0V5a.5.5 0 0 1 1 0v7a.5.5 0 0 0 1 0V3a1.5 1.5 0 1 0-3 0v9a2.5 2.5 0 0 0 5 0V5a.5.5 0 0 1 1 0v7a3.5 3.5 0 1 1-7 0z" />
    </symbol>
    <symbol viewBox="0 0 16 16" id="globe-icon">
        <path
            d="M0 8a8 8 0 1 1 16 0A8 8 0 0 1 0 8m7.5-6.923c-.67.204-1.335.82-1.887 1.855q-.215.403-.395.872c.705.157 1.472.257 2.282.287zM4.249 3.539q.214-.577.481-1.078a7 7 0 0 1 .597-.933A7 7 0 0 0 3.051 3.05q.544.277 1.198.49zM3.509 7.5c.036-1.07.188-2.087.436-3.008a9 9 0 0 1-1.565-.667A6.96 6.96 0 0 0 1.018 7.5zm1.4-2.741a12.3 12.3 0 0 0-.4 2.741H7.5V5.091c-.91-.03-1.783-.145-2.591-.332M8.5 5.09V7.5h2.99a12.3 12.3 0 0 0-.399-2.741c-.808.187-1.681.301-2.591.332zM4.51 8.5c.035.987.176 1.914.399 2.741A13.6 13.6 0 0 1 7.5 10.91V8.5zm3.99 0v2.409c.91.03 1.783.145 2.591.332.223-.827.364-1.754.4-2.741zm-3.282 3.696q.18.469.395.872c.552 1.035 1.218 1.65 1.887 1.855V11.91c-.81.03-1.577.13-2.282.287zm.11 2.276a7 7 0 0 1-.598-.933 9 9 0 0 1-.481-1.079 8.4 8.4 0 0 0-1.198.49 7 7 0 0 0 2.276 1.522zm-1.383-2.964A13.4 13.4 0 0 1 3.508 8.5h-2.49a6.96 6.96 0 0 0 1.362 3.675c.47-.258.995-.482 1.565-.667m6.728 2.964a7 7 0 0 0 2.275-1.521 8.4 8.4 0 0 0-1.197-.49 9 9 0 0 1-.481 1.078 7 7 0 0 1-.597.933M8.5 11.909v3.014c.67-.204 1.335-.82 1.887-1.855q.216-.403.395-.872A12.6 12.6 0 0 0 8.5 11.91zm3.555-.401c.57.185 1.095.409 1.565.667A6.96 6.96 0 0 0 14.982 8.5h-2.49a13.4 13.4 0 0 1-.437 3.008M14.982 7.5a6.96 6.96 0 0 0-1.362-3.675c-.47.258-.995.482-1.565.667.248.92.4 1.938.437 3.008zM11.27 2.461q.266.502.482 1.078a8.4 8.4 0 0 0 1.196-.49 7 7 0 0 0-2.275-1.52c.218.283.418.597.597.932m-.488 1.343a8 8 0 0 0-.395-.872C9.835 1.897 9.17 1.282 8.5 1.077V4.09c.81-.03 1.577-.13 2.282-.287z" />
    </symbol>
    <symbol viewBox="0 0 16 16" id="arrow-up-icon">
        <path
            d="M8 12a.5.5 0 0 0 .5-.5V5.707l2.146 2.147a.5.5 0 0 0 .708-.708l-3-3a.5.5 0 0 0-.708 0l-3 3a.5.5 0 1 0 .708.708L7.5 5.707V11.5a.5.5 0 0 0 .5.5" />
    </symbol>
    <symbol viewBox="0 0 16 16" id="settings-icon">
        <path
            d="M9.405 1.05c-.413-1.4-2.397-1.4-2.81 0l-.1.34a1.464 1.464 0 0 1-2.105.872l-.31-.17c-1.283-.698-2.686.705-1.987 1.987l.169.311c.446.82.023 1.841-.872 2.105l-.34.1c-1.4.413-1.4 2.397 0 2.81l.34.1a1.464 1.464 0 0 1 .872 2.105l-.17.31c-.698 1.283.705 2.686 1.987 1.987l.311-.169a1.464 1.464 0 0 1 2.105.872l.1.34c.413 1.4 2.397 1.4 2.81 0l.1-.34a1.464 1.464 0 0 1 2.105-.872l.31.17c1.283.698 2.686-.705 1.987-1.987l-.169-.311a1.464 1.464 0 0 1 .872-2.105l.34-.1c1.4-.413 1.4-2.397 0-2.81l-.34-.1a1.464 1.464 0 0 1-.872-2.105l.17-.31c.698-1.283-.705-2.686-1.987-1.987l-.311.169a1.464 1.464 0 0 1-2.105-.872zM8 10.93a2.929 2.929 0 1 1 0-5.86 2.929 2.929 0 0 1 0 5.858z" />
    </symbol>
    <symbol viewBox="0 0 16 16" id="search-icon">
        <path
            d="M11.742 10.344a6.5 6.5 0 1 0-1.397 1.398h-.001q.044.06.098.115l3.85 3.85a1 1 0 0 0 1.415-1.414l-3.85-3.85a1 1 0 0 0-.115-.1zM12 6.5a5.5 5.5 0 1 1-11 0 5.5 5.5 0 0 1 11 0" />
    </symbol>
    <symbol viewBox="0 0 16 16" id="plus-icon">
        <path
            d="M8 2a.5.5 0 0 1 .5.5v5h5a.5.5 0 0 1 0 1h-5v5a.5.5 0 0 1-1 0v-5h-5a.5.5 0 0 1 0-1h5v-5A.5.5 0 0 1 8 2" />
    </symbol>
    <symbol viewBox="0 0 16 16" id="down-icon">
        <path
            d="M1.646 4.646a.5.5 0 0 1 .708 0L8 10.293l5.646-5.647a.5.5 0 0 1 .708.708l-6 6a.5.5 0 0 1-.708 0l-6-6a.5.5 0 0 1 0-.708" />
    </symbol>
    <symbol viewBox="0 0 16 16" id="activity-icon">
        <path
            d="M6 2a.5.5 0 0 1 .47.33L10 12.036l1.53-4.208A.5.5 0 0 1 12 7.5h3.5a.5.5 0 0 1 0 1h-3.15l-1.88 5.17a.5.5 0 0 1-.94 0L6 3.964 4.47 8.171A.5.5 0 0 1 4 8.5H.5a.5.5 0 0 1 0-1h3.15l1.88-5.17A.5.5 0 0 1 6 2" />
    </symbol>
    <symbol viewBox="0 0 16 16" id="stars-icon">
        <path
            d="M7.657 6.247c.11-.33.576-.33.686 0l.645 1.937a2.89 2.89 0 0 0 1.829 1.828l1.936.645c.33.11.33.576 0 .686l-1.937.645a2.89 2.89 0 0 0-1.828 1.829l-.645 1.936a.361.361 0 0 1-.686 0l-.645-1.937a2.89 2.89 0 0 0-1.828-1.828l-1.937-.645a.361.361 0 0 1 0-.686l1.937-.645a2.89 2.89 0 0 0 1.828-1.828zM3.794 1.148a.217.217 0 0 1 .412 0l.387 1.162c.173.518.579.924 1.097 1.097l1.162.387a.217.217 0 0 1 0 .412l-1.162.387A1.73 1.73 0 0 0 4.593 5.69l-.387 1.162a.217.217 0 0 1-.412 0L3.407 5.69A1.73 1.73 0 0 0 2.31 4.593l-1.162-.387a.217.217 0 0 1 0-.412l1.162-.387A1.73 1.73 0 0 0 3.407 2.31zM10.863.099a.145.145 0 0 1 .274 0l.258.774c.115.346.386.617.732.732l.774.258a.145.145 0 0 1 0 .274l-.774.258a1.16 1.16 0 0 0-.732.732l-.258.774a.145.145 0 0 1-.274 0l-.258-.774a1.16 1.16 0 0 0-.732-.732L9.1 2.137a.145.145 0 0 1 0-.274l.774-.258c.346-.115.617-.386.732-.732z" />
    </symbol>
    <symbol viewBox="0 0 16 16" id="edit-icon">
        <path
            d="M15.502 1.94a.5.5 0 0 1 0 .706L14.459 3.69l-2-2L13.502.646a.5.5 0 0 1 .707 0l1.293 1.293zm-1.75 2.456-2-2L4.939 9.21a.5.5 0 0 0-.121.196l-.805 2.414a.25.25 0 0 0 .316.316l2.414-.805a.5.5 0 0 0 .196-.12l6.813-6.814z" />
        <path
            d="M1 13.5A1.5 1.5 0 0 0 2.5 15h11a1.5 1.5 0 0 0 1.5-1.5v-6a.5.5 0 0 0-1 0v6a.5.5 0 0 1-.5.5h-11a.5.5 0 0 1-.5-.5v-11a.5.5 0 0 1 .5-.5H9a.5.5 0 0 0 0-1H2.5A1.5 1.5 0 0 0 1 2.5z" />
    </symbol>
    <symbol viewBox="0 0 16 16" id="copy-icon">
        <path
            d="M4 1.5H3a2 2 0 0 0-2 2V14a2 2 0 0 0 2 2h10a2 2 0 0 0 2-2V3.5a2 2 0 0 0-2-2h-1v1h1a1 1 0 0 1 1 1V14a1 1 0 0 1-1 1H3a1 1 0 0 1-1-1V3.5a1 1 0 0 1 1-1h1z" />
        <path
            d="M9.5 1a.5.5 0 0 1 .5.5v1a.5.5 0 0 1-.5.5h-3a.5.5 0 0 1-.5-.5v-1a.5.5 0 0 1 .5-.5zm-3-1A1.5 1.5 0 0 0 5 1.5v1A1.5 1.5 0 0 0 6.5 4h3A1.5 1.5 0 0 0 11 2.5v-1A1.5 1.5 0 0 0 9.5 0z" />
    </symbol>
    <symbol viewBox="0 0 16 16" id="repeat-icon">
        <path
            d="M11.534 7h3.932a.25.25 0 0 1 .192.41l-1.966 2.36a.25.25 0 0 1-.384 0l-1.966-2.36a.25.25 0 0 1 .192-.41m-11 2h3.932a.25.25 0 0 0 .192-.41L2.692 6.23a.25.25 0 0 0-.384 0L.342 8.59A.25.25 0 0 0 .534 9" />
        <path
            d="M8 3c-1.552 0-2.94.707-3.857 1.818a.5.5 0 1 1-.771-.636A6.002 6.002 0 0 1 13.917 7H12.9A5 5 0 0 0 8 3M3.1 9a5.002 5.002 0 0 0 8.757 2.182.5.5 0 1 1 .771.636A6.002 6.002 0 0 1 2.083 9z" />
    </symbol>
    <symbol viewBox="0 0 16 16" id="like-icon">
        <path
            d="M8.864.046C7.908-.193 7.02.53 6.956 1.466c-.072 1.051-.23 2.016-.428 2.59-.125.36-.479 1.013-1.04 1.639-.557.623-1.282 1.178-2.131 1.41C2.685 7.288 2 7.87 2 8.72v4.001c0 .845.682 1.464 1.448 1.545 1.07.114 1.564.415 2.068.723l.048.03c.272.165.578.348.97.484.397.136.861.217 1.466.217h3.5c.937 0 1.599-.477 1.934-1.064a1.86 1.86 0 0 0 .254-.912c0-.152-.023-.312-.077-.464.201-.263.38-.578.488-.901.11-.33.172-.762.004-1.149.069-.13.12-.269.159-.403.077-.27.113-.568.113-.857 0-.288-.036-.585-.113-.856a2 2 0 0 0-.138-.362 1.9 1.9 0 0 0 .234-1.734c-.206-.592-.682-1.1-1.2-1.272-.847-.282-1.803-.276-2.516-.211a10 10 0 0 0-.443.05 9.4 9.4 0 0 0-.062-4.509A1.38 1.38 0 0 0 9.125.111zM11.5 14.721H8c-.51 0-.863-.069-1.14-.164-.281-.097-.506-.228-.776-.393l-.04-.024c-.555-.339-1.198-.731-2.49-.868-.333-.036-.554-.29-.554-.55V8.72c0-.254.226-.543.62-.65 1.095-.3 1.977-.996 2.614-1.708.635-.71 1.064-1.475 1.238-1.978.243-.7.407-1.768.482-2.85.025-.362.36-.594.667-.518l.262.066c.16.04.258.143.288.255a8.34 8.34 0 0 1-.145 4.725.5.5 0 0 0 .595.644l.003-.001.014-.003.058-.014a9 9 0 0 1 1.036-.157c.663-.06 1.457-.054 2.11.164.175.058.45.3.57.65.107.308.087.67-.266 1.022l-.353.353.353.354c.043.043.105.141.154.315.048.167.075.37.075.581 0 .212-.027.414-.075.582-.05.174-.111.272-.154.315l-.353.353.353.354c.047.047.109.177.005.488a2.2 2.2 0 0 1-.505.805l-.353.353.353.354c.006.005.041.05.041.17a.9.9 0 0 1-.121.416c-.165.288-.503.56-1.066.56z" />
    </symbol>
    <symbol viewBox="0 0 16 16" id="dislike-icon">
        <path
            d="M8.864 15.674c-.956.24-1.843-.484-1.908-1.42-.072-1.05-.23-2.015-.428-2.59-.125-.36-.479-1.012-1.04-1.638-.557-.624-1.282-1.179-2.131-1.41C2.685 8.432 2 7.85 2 7V3c0-.845.682-1.464 1.448-1.546 1.07-.113 1.564-.415 2.068-.723l.048-.029c.272-.166.578-.349.97-.484C6.931.08 7.395 0 8 0h3.5c.937 0 1.599.478 1.934 1.064.164.287.254.607.254.913 0 .152-.023.312-.077.464.201.262.38.577.488.9.11.33.172.762.004 1.15.069.13.12.268.159.403.077.27.113.567.113.856s-.036.586-.113.856c-.035.12-.08.244-.138.363.394.571.418 1.2.234 1.733-.206.592-.682 1.1-1.2 1.272-.847.283-1.803.276-2.516.211a10 10 0 0 1-.443-.05 9.36 9.36 0 0 1-.062 4.51c-.138.508-.55.848-1.012.964zM11.5 1H8c-.51 0-.863.068-1.14.163-.281.097-.506.229-.776.393l-.04.025c-.555.338-1.198.73-2.49.868-.333.035-.554.29-.554.55V7c0 .255.226.543.62.65 1.095.3 1.977.997 2.614 1.709.635.71 1.064 1.475 1.238 1.977.243.7.407 1.768.482 2.85.025.362.36.595.667.518l.262-.065c.16-.04.258-.144.288-.255a8.34 8.34 0 0 0-.145-4.726.5.5 0 0 1 .595-.643h.003l.014.004.058.013a9 9 0 0 0 1.036.157c.663.06 1.457.054 2.11-.163.175-.059.45-.301.57-.651.107-.308.087-.67-.266-1.021L12.793 7l.353-.354c.043-.042.105-.14.154-.315.048-.167.075-.37.075-.581s-.027-.414-.075-.581c-.05-.174-.111-.273-.154-.315l-.353-.354.353-.354c.047-.047.109-.176.005-.488a2.2 2.2 0 0 0-.505-.804l-.353-.354.353-.354c.006-.005.041-.05.041-.17a.9.9 0 0 0-.121-.415C12.4 1.272 12.063 1 11.5 1" />
    </symbol>

    <symbol viewBox="0 0 16 16" id="plus-icon">
        <path
            d="M8 4a.5.5 0 0 1 .5.5v3h3a.5.5 0 0 1 0 1h-3v3a.5.5 0 0 1-1 0v-3h-3a.5.5 0 0 1 0-1h3v-3A.5.5 0 0 1 8 4" />
    </symbol>

    <symbol viewBox="0 0 16 16" id="delete-icon">
        <path
            d="M6.5 1h3a.5.5 0 0 1 .5.5v1H6v-1a.5.5 0 0 1 .5-.5M11 2.5v-1A1.5 1.5 0 0 0 9.5 0h-3A1.5 1.5 0 0 0 5 1.5v1H1.5a.5.5 0 0 0 0 1h.538l.853 10.66A2 2 0 0 0 4.885 16h6.23a2 2 0 0 0 1.994-1.84l.853-10.66h.538a.5.5 0 0 0 0-1zm1.958 1-.846 10.58a1 1 0 0 1-.997.92h-6.23a1 1 0 0 1-.997-.92L3.042 3.5zm-7.487 1a.5.5 0 0 1 .528.47l.5 8.5a.5.5 0 0 1-.998.06L5 5.03a.5.5 0 0 1 .47-.53Zm5.058 0a.5.5 0 0 1 .47.53l-.5 8.5a.5.5 0 1 1-.998-.06l.5-8.5a.5.5 0 0 1 .528-.47M8 4.5a.5.5 0 0 1 .5.5v8.5a.5.5 0 0 1-1 0V5a.5.5 0 0 1 .5-.5" />
    </symbol>

    <symbol viewBox="0 0 16 16" id="chat-icon">
        <path
            d="M2.678 11.894a1 1 0 0 1 .287.801 11 11 0 0 1-.398 2c1.395-.323 2.247-.697 2.634-.893a1 1 0 0 1 .71-.074A8 8 0 0 0 8 14c3.996 0 7-2.807 7-6s-3.004-6-7-6-7 2.808-7 6c0 1.468.617 2.83 1.678 3.894m-.493 3.905a22 22 0 0 1-.713.129c-.2.032-.352-.176-.273-.362a10 10 0 0 0 .244-.637l.003-.01c.248-.72.45-1.548.524-2.319C.743 11.37 0 9.76 0 8c0-3.866 3.582-7 8-7s8 3.134 8 7-3.582 7-8 7a9 9 0 0 1-2.347-.306c-.52.263-1.639.742-3.468 1.105" />
        <path
            d="M4 5.5a.5.5 0 0 1 .5-.5h7a.5.5 0 0 1 0 1h-7a.5.5 0 0 1-.5-.5M4 8a.5.5 0 0 1 .5-.5h7a.5.5 0 0 1 0 1h-7A.5.5 0 0 1 4 8m0 2.5a.5.5 0 0 1 .5-.5h4a.5.5 0 0 1 0 1h-4a.5.5 0 0 1-.5-.5" />
    </symbol>

    <symbol id="quote-icon" viewBox="0 0 16 16">
        <path fill-opacity=".75"
            d="M12.995 8.195c0 .937-.312 1.912-.78 2.693l1.99 1.99c.976-1.327 1.6-2.966 1.6-4.683 0-1.795-.624-3.434-1.561-4.76l-2.068 2.028c.468.781.78 1.679.78 2.732z" />
        <path
            d="M8 13.151a4.995 4.995 0 1 1 0-9.99c1.015 0 1.951.273 2.732.82l1.95-2.03a7.805 7.805 0 1 0 .04 12.449l-1.951-2.03a5.07 5.07 0 0 1-2.732.781z" />
    </symbol>

</svg>